<?xml version="1.0" encoding="UTF-8" standalone="no"?>
<!DOCTYPE svg PUBLIC "-//W3C//DTD SVG 1.1//EN" "http://www.w3.org/Graphics/SVG/1.1/DTD/svg11.dtd">
<svg width="100%" height="100%" viewBox="0 0 10000 10918" version="1.1" xmlns="http://www.w3.org/2000/svg" xmlns:xlink="http://www.w3.org/1999/xlink" xml:space="preserve" xmlns:serif="http://www.serif.com/" style="fill-rule:evenodd;clip-rule:evenodd;stroke-linejoin:round;stroke-miterlimit:2;">
    <g transform="matrix(1.60286,0,0,1.60286,-2261.65,-685.16)">
        <g transform="matrix(917.143,0,0,917.143,2042.5,3837)">
            <path d="M0.539,-0.638L0.539,-0.505C0.449,-0.546 0.376,-0.566 0.323,-0.566C0.292,-0.566 0.268,-0.561 0.25,-0.551C0.232,-0.54 0.223,-0.527 0.223,-0.51C0.223,-0.497 0.229,-0.484 0.242,-0.473C0.255,-0.461 0.287,-0.446 0.337,-0.427C0.388,-0.409 0.428,-0.391 0.458,-0.375C0.489,-0.36 0.515,-0.337 0.537,-0.308C0.559,-0.279 0.57,-0.243 0.57,-0.198C0.57,-0.135 0.546,-0.085 0.498,-0.047C0.45,-0.01 0.387,0.009 0.308,0.009C0.223,0.009 0.141,-0.013 0.062,-0.057L0.062,-0.204C0.108,-0.174 0.148,-0.151 0.183,-0.137C0.218,-0.123 0.256,-0.116 0.295,-0.116C0.362,-0.116 0.395,-0.137 0.395,-0.179C0.395,-0.193 0.388,-0.207 0.375,-0.22C0.362,-0.232 0.329,-0.248 0.279,-0.266C0.228,-0.284 0.187,-0.301 0.157,-0.317C0.128,-0.332 0.102,-0.355 0.08,-0.384C0.059,-0.413 0.048,-0.45 0.048,-0.495C0.048,-0.554 0.071,-0.601 0.119,-0.637C0.166,-0.673 0.229,-0.691 0.308,-0.691C0.381,-0.691 0.458,-0.673 0.539,-0.638Z" style="fill-rule:nonzero;"/>
        </g>
        <g transform="matrix(917.143,0,0,917.143,2596.46,3837)">
            <path d="M0.692,-0.682L0.692,-0.557L0.445,-0.557L0.445,-0L0.275,-0L0.275,-0.557L0.028,-0.557L0.028,-0.682L0.692,-0.682Z" style="fill-rule:nonzero;"/>
        </g>
        <g transform="matrix(917.143,0,0,917.143,3256.1,3837)">
            <path d="M0.582,-0.682L0.752,-0.682L0.752,-0.295C0.752,-0.195 0.722,-0.12 0.664,-0.068C0.605,-0.017 0.521,0.009 0.411,0.009C0.303,0.009 0.219,-0.017 0.159,-0.069C0.1,-0.121 0.07,-0.196 0.07,-0.294L0.07,-0.682L0.24,-0.682L0.24,-0.29C0.24,-0.243 0.256,-0.204 0.287,-0.176C0.318,-0.147 0.359,-0.133 0.409,-0.133C0.462,-0.133 0.503,-0.147 0.535,-0.177C0.566,-0.206 0.582,-0.248 0.582,-0.302L0.582,-0.682Z" style="fill-rule:nonzero;"/>
        </g>
        <g transform="matrix(917.143,0,0,917.143,4011.13,3837)">
            <path d="M0.075,-0.682L0.376,-0.682C0.492,-0.682 0.584,-0.65 0.652,-0.587C0.719,-0.523 0.753,-0.441 0.753,-0.34C0.753,-0.234 0.719,-0.151 0.65,-0.091C0.582,-0.03 0.484,-0 0.357,-0L0.075,-0L0.075,-0.682ZM0.245,-0.557L0.245,-0.125L0.356,-0.125C0.428,-0.125 0.483,-0.145 0.521,-0.184C0.559,-0.224 0.578,-0.276 0.578,-0.341C0.578,-0.408 0.559,-0.461 0.52,-0.499C0.482,-0.538 0.426,-0.557 0.354,-0.557L0.245,-0.557Z" style="fill-rule:nonzero;"/>
        </g>
        <g transform="matrix(917.143,0,0,917.143,4746.46,3837)">
            <rect x="0.082" y="-0.682" width="0.17" height="0.682" style="fill-rule:nonzero;"/>
        </g>
        <g transform="matrix(917.143,0,0,917.143,5051.88,3837)">
            <path d="M0.438,-0.691C0.554,-0.691 0.648,-0.656 0.72,-0.586C0.792,-0.516 0.828,-0.434 0.828,-0.341C0.828,-0.246 0.792,-0.165 0.719,-0.095C0.646,-0.026 0.552,0.009 0.438,0.009C0.322,0.009 0.228,-0.026 0.156,-0.095C0.083,-0.164 0.047,-0.246 0.047,-0.341C0.047,-0.434 0.083,-0.516 0.155,-0.586C0.227,-0.656 0.321,-0.691 0.438,-0.691ZM0.438,-0.133C0.502,-0.133 0.554,-0.152 0.594,-0.19C0.633,-0.228 0.653,-0.279 0.653,-0.341C0.653,-0.403 0.633,-0.454 0.594,-0.492C0.554,-0.53 0.502,-0.549 0.438,-0.549C0.373,-0.549 0.321,-0.53 0.281,-0.492C0.242,-0.454 0.222,-0.403 0.222,-0.341C0.222,-0.279 0.242,-0.228 0.281,-0.19C0.321,-0.152 0.373,-0.133 0.438,-0.133Z" style="fill-rule:nonzero;"/>
        </g>
        <g transform="matrix(917.143,0,0,917.143,5854.38,3837)">
            <path d="M0.539,-0.638L0.539,-0.505C0.449,-0.546 0.376,-0.566 0.323,-0.566C0.292,-0.566 0.268,-0.561 0.25,-0.551C0.232,-0.54 0.223,-0.527 0.223,-0.51C0.223,-0.497 0.229,-0.484 0.242,-0.473C0.255,-0.461 0.287,-0.446 0.337,-0.427C0.388,-0.409 0.428,-0.391 0.458,-0.375C0.489,-0.36 0.515,-0.337 0.537,-0.308C0.559,-0.279 0.57,-0.243 0.57,-0.198C0.57,-0.135 0.546,-0.085 0.498,-0.047C0.45,-0.01 0.387,0.009 0.308,0.009C0.223,0.009 0.141,-0.013 0.062,-0.057L0.062,-0.204C0.108,-0.174 0.148,-0.151 0.183,-0.137C0.218,-0.123 0.256,-0.116 0.295,-0.116C0.362,-0.116 0.395,-0.137 0.395,-0.179C0.395,-0.193 0.388,-0.207 0.375,-0.22C0.362,-0.232 0.329,-0.248 0.279,-0.266C0.228,-0.284 0.187,-0.301 0.157,-0.317C0.128,-0.332 0.102,-0.355 0.08,-0.384C0.059,-0.413 0.048,-0.45 0.048,-0.495C0.048,-0.554 0.071,-0.601 0.119,-0.637C0.166,-0.673 0.229,-0.691 0.308,-0.691C0.381,-0.691 0.458,-0.673 0.539,-0.638Z" style="fill-rule:nonzero;"/>
        </g>
    </g>
    <g transform="matrix(0.995498,0,0,0.995498,3210.43,3233.81)">
        <path d="M949,3883.57C429.984,3804.67 381.291,3824.49 -0.13,3814.69L-0.13,7272.92C16.16,7682.65 328.799,7797.55 679.065,7693.88C759.438,7670.09 841.791,7634.8 923,7588.92L949,3883.57Z"/>
    </g>
    <g transform="matrix(1.0402,0,0,1.40254,3031.62,1661.58)">
        <path d="M1576.68,3924.31L949,3862.56L988.809,4632.45C1006.89,4630.5 1061.3,4576.67 1068.01,4565.29C1086.22,4534.43 1129.89,4521.59 1141.32,4521.66C1161.64,4521.79 1189.85,4531.2 1194.07,4533.34C1404.62,4639.89 2039.54,4907.2 2538.59,5172.26C2551.21,5178.96 2566.06,5201.76 2565.26,5209.18C2564.45,5216.68 2548.97,5234.05 2533.07,5244.97L1172.23,5718.03C1148.31,5724.18 1120.87,5716.14 1095.42,5700.77C1046.25,5661.14 1058.43,5624.04 1055.42,5614.36L1007.38,6523.84L3656.3,5606.81C4142.78,5421.73 4073.71,5070.69 3649.09,4903.93L1576.68,3924.31Z"/>
    </g>
    <g transform="matrix(1.40135,0,0,1.40135,-455.437,-70.0673)">
        <rect x="387" y="1489" width="578" height="407"/>
    </g>
    <g transform="matrix(1.40135,0,0,1.40135,-235.426,740.611)">
        <rect x="387" y="1489" width="578" height="407"/>
    </g>
    <g transform="matrix(1.40135,0,0,1.40135,1584.22,1256.31)">
        <rect x="387" y="1489" width="578" height="407"/>
    </g>
    <g transform="matrix(1.40135,0,0,1.40135,-29.4283,1617.85)">
        <rect x="387" y="1489" width="578" height="407"/>
    </g>
    <g transform="matrix(1.40135,0,0,1.40135,7698.99,2188.2)">
        <rect x="387" y="1489" width="578" height="407"/>
    </g>
    <g transform="matrix(1.40135,0,0,1.40135,8398.26,2948.43)">
        <rect x="387" y="1489" width="578" height="407"/>
    </g>
    <g transform="matrix(1.40135,0,0,1.40135,2969.45,1617.85)">
        <rect x="387" y="1489" width="578" height="407"/>
    </g>
    <g transform="matrix(1.40135,0,0,1.40135,2224.64,51.8498)">
        <rect x="387" y="1489" width="578" height="407"/>
    </g>
    <g transform="matrix(1.40135,0,0,1.40135,1819.65,-1877.8)">
        <rect x="387" y="1489" width="578" height="407"/>
    </g>
    <g transform="matrix(6.30939e-17,1.0304,-1.0304,6.30939e-17,3185.24,-185.06)">
        <rect x="387" y="1489" width="578" height="407"/>
    </g>
    <g transform="matrix(1.40135,0,0,1.40135,4467.49,-1389.43)">
        <rect x="387" y="1489" width="578" height="407"/>
    </g>
    <g transform="matrix(1.40135,0,0,1.40135,4302.83,-20.3195)">
        <rect x="387" y="1489" width="578" height="407"/>
    </g>
    <g transform="matrix(0.831594,0,0,1.13278,944.989,-579.651)">
        <rect x="387" y="1489" width="578" height="407"/>
    </g>
    <g transform="matrix(0.831594,0,0,1.13278,1564.38,-9.30328)">
        <rect x="387" y="1489" width="578" height="407"/>
    </g>
    <g transform="matrix(0.831594,0,0,1.13278,3513.66,570.153)">
        <rect x="387" y="1489" width="578" height="407"/>
    </g>
    <g transform="matrix(0.831594,0,0,1.13278,3163.32,-1138.09)">
        <rect x="387" y="1489" width="578" height="407"/>
    </g>
    <g transform="matrix(0.831594,0,0,1.13278,3994.32,-1138.09)">
        <rect x="387" y="1489" width="578" height="407"/>
    </g>
    <g transform="matrix(0.831594,0,0,1.13278,4697.79,-1599.13)">
        <rect x="387" y="1489" width="578" height="407"/>
    </g>
    <g transform="matrix(0.831594,0,0,1.13278,5596.75,949.918)">
        <rect x="387" y="1489" width="578" height="407"/>
    </g>
    <g transform="matrix(0.831594,0,0,1.13278,7843.81,3560.71)">
        <rect x="387" y="1489" width="578" height="407"/>
    </g>
    <g transform="matrix(0.831594,0,0,1.13278,4697.79,-279.062)">
        <rect x="387" y="1489" width="578" height="407"/>
    </g>
    <g transform="matrix(0.831594,0,0,1.13278,4697.79,-279.062)">
        <rect x="387" y="1489" width="578" height="407"/>
    </g>
    <g transform="matrix(1.40135,0,0,1.40135,4302.83,-20.3195)">
        <rect x="387" y="1489" width="578" height="407"/>
    </g>
    <g transform="matrix(1.40135,0,0,1.40135,4302.83,725.897)">
        <rect x="387" y="1489" width="578" height="407"/>
    </g>
    <g transform="matrix(1.40135,0,0,1.40135,6292.74,-1018.78)">
        <rect x="387" y="1489" width="578" height="407"/>
    </g>
    <g transform="matrix(1.40135,0,0,1.40135,6551.99,-1918.44)">
        <rect x="387" y="1489" width="578" height="407"/>
    </g>
    <g transform="matrix(1.40135,0,0,1.40135,7361.97,-448.43)">
        <rect x="387" y="1489" width="578" height="407"/>
    </g>
    <g transform="matrix(1.40135,0,0,1.40135,7437.64,4631.45)">
        <rect x="387" y="1489" width="578" height="407"/>
    </g>
    <g transform="matrix(1.40135,0,0,1.40135,924.187,3545.4)">
        <rect x="387" y="1489" width="578" height="407"/>
    </g>
    <g transform="matrix(1.40135,0,0,1.40135,4875.98,4115.75)">
        <rect x="387" y="1489" width="578" height="407"/>
    </g>
    <g transform="matrix(0.831594,0,0,1.13278,5738.29,-934.892)">
        <rect x="387" y="1489" width="578" height="407"/>
    </g>
    <g transform="matrix(0.831594,0,0,1.13278,6677.89,949.918)">
        <rect x="387" y="1489" width="578" height="407"/>
    </g>
    <g transform="matrix(0.831594,0,0,1.13278,7177.47,1696.13)">
        <rect x="387" y="1489" width="578" height="407"/>
    </g>
    <g transform="matrix(0.831594,0,0,1.13278,7987.45,1926.66)">
        <rect x="387" y="1489" width="578" height="407"/>
    </g>
    <g transform="matrix(0.831594,0,0,1.13278,7987.45,1926.66)">
        <rect x="387" y="1489" width="578" height="407"/>
    </g>
    <g transform="matrix(0.831594,0,0,1.13278,8557.1,949.918)">
        <rect x="387" y="1489" width="578" height="407"/>
    </g>
    <g transform="matrix(0.831594,0,0,1.13278,8721.75,153.953)">
        <rect x="387" y="1489" width="578" height="407"/>
    </g>
    <g transform="matrix(0.831594,0,0,1.13278,7911.78,4339.77)">
        <rect x="387" y="1489" width="578" height="407"/>
    </g>
    <g transform="matrix(0.831594,0,0,1.13278,760.712,257.653)">
        <rect x="387" y="1489" width="578" height="407"/>
    </g>
    <g transform="matrix(0.831594,0,0,1.13278,6069.01,5140.64)">
        <rect x="387" y="1489" width="578" height="407"/>
    </g>
    <g transform="matrix(0.831594,0,0,1.13278,5969.51,4021.75)">
        <rect x="387" y="1489" width="578" height="407"/>
    </g>
    <g transform="matrix(0.831594,0,0,1.13278,1083.72,1480.33)">
        <rect x="387" y="1489" width="578" height="407"/>
    </g>
    <g transform="matrix(0.831594,0,0,1.13278,3519.26,4629.15)">
        <rect x="387" y="1489" width="578" height="407"/>
    </g>
    <g transform="matrix(0.831594,0,0,1.13278,3519.26,4021.75)">
        <rect x="387" y="1489" width="578" height="407"/>
    </g>
    <g transform="matrix(0.831594,0,0,1.13278,133.61,3791.23)">
        <rect x="387" y="1489" width="578" height="407"/>
    </g>
    <g transform="matrix(0.831594,0,0,1.13278,34.1148,2873.26)">
        <rect x="387" y="1489" width="578" height="407"/>
    </g>
    <g transform="matrix(1.40135,0,0,1.40135,0,0)">
        <rect x="20" y="699" width="518" height="405"/>
    </g>
    <g transform="matrix(1.40135,0,0,1.40135,0,0)">
        <rect x="1708" y="770" width="524" height="383"/>
    </g>
    <g transform="matrix(1.40135,0,0,1.40135,0,0)">
        <rect x="2772" y="860" width="458" height="639"/>
    </g>
    <g transform="matrix(1.40135,0,0,1.40135,0,0)">
        <rect x="2564" y="-9" width="556" height="280"/>
    </g>
    <g transform="matrix(1.40135,0,0,1.40135,0,0)">
        <rect x="4186" y="-39" width="660" height="490"/>
    </g>
    <g transform="matrix(1.40135,0,0,1.40135,0,0)">
        <rect x="4251" y="1222" width="936" height="440"/>
    </g>
    <g transform="matrix(1.40135,0,0,1.40135,0,0)">
        <rect x="5817" y="556" width="916" height="501"/>
    </g>
    <g transform="matrix(1.40135,0,0,1.40135,0,0)">
        <rect x="5567" y="1788" width="591" height="555"/>
    </g>
    <g transform="matrix(1.40135,0,0,1.40135,0,0)">
        <rect x="4291" y="2338" width="821" height="396"/>
    </g>
    <g transform="matrix(1.40135,0,0,1.40135,0,0)">
        <rect x="3475" y="2558" width="556" height="326"/>
    </g>
    <g transform="matrix(1.40135,0,0,1.40135,0,0)">
        <rect x="2369" y="2153" width="651" height="330"/>
    </g>
    <g transform="matrix(1.40135,0,0,1.40135,0,0)">
        <rect x="1203" y="1622" width="480" height="426"/>
    </g>
    <g transform="matrix(1.40135,0,0,1.40135,0,0)">
        <rect x="821" y="4615" width="617" height="428"/>
    </g>
    <g transform="matrix(1.40135,0,0,1.40135,0,0)">
        <rect x="1546" y="5083" width="448" height="389"/>
    </g>
    <g transform="matrix(1.40135,0,0,1.40135,0,0)">
        <rect x="1770" y="4439" width="781" height="260"/>
    </g>
    <g transform="matrix(1.40135,0,0,1.40135,0,0)">
        <rect x="3212" y="4259" width="460" height="288"/>
    </g>
    <g transform="matrix(1.40135,0,0,1.40135,0,0)">
        <rect x="3900" y="4951" width="537" height="385"/>
    </g>
    <g transform="matrix(1.40135,0,0,1.40135,0,0)">
        <rect x="4993" y="5176" width="661" height="508"/>
    </g>
    <g transform="matrix(1.40135,0,0,1.40135,0,0)">
        <rect x="4893" y="4335" width="633" height="428"/>
    </g>
    <g transform="matrix(1.01416,0,0,0.973289,-141.541,183.773)">
        <rect x="9077" y="6281" width="918" height="599"/>
    </g>
</svg>
